# xmcd
#
# Track frame offsets:
#	150
#	15019
#	28866
#	47032
#	62647
#	77985
#	93007
#	110370
#	121906
#	137650
#	154308
#	168887
#	185130
#	201452
#	218234
#	233124
#	246928
#	278215
#
# Disc length: 4172 seconds
#
# Revision: 1
# Processed by: cddbd v1.5.2PL0 Copyright (c) Steve Scherf et al.
# Submitted via: audiograbber 1.83.01
#
DISCID=f7104a12
DTITLE=Various Artist - Conformity just doesn't suit us - Spring sampler
DYEAR=2001
DGENRE=Country
TTITLE0=John Anderson - The big revival
TTITLE1=Dixie Chicks - If i fall you're going down with me
TTITLE2=Travis Tritt - It's a great day to be alive
TTITLE3=Billy Gilman - There's a hero
TTITLE4=Patty Loveless - The last thing on my mind
TTITLE5=Billy Ray Cyrus - Burn down the trailer park
TTITLE6=Mary Chapin Carpenter - The simple life
TTITLE7=Charlie Robison - I want you bad
TTITLE8=Collin Raye - You still take me there
TTITLE9=Montgomery Gentry - She couldn't change me
TTITLE10=The Kinleys - You're still here
TTITLE11=Joe Diffie - Stones on her love
TTITLE12=Tammy Cochran - Angels in waiting
TTITLE13=Billy Yates - Shadows
TTITLE14=Rodney Crowell - I couldn't leave you if i tried
TTITLE15=Darden Smith - God's will
TTITLE16=Cledus T. Judd - Playboy
TTITLE17=Txt - Daten-CD
EXTD=
EXTT0=
EXTT1=
EXTT2=
EXTT3=
EXTT4=
EXTT5=
EXTT6=
EXTT7=
EXTT8=
EXTT9=
EXTT10=
EXTT11=
EXTT12=
EXTT13=
EXTT14=
EXTT15=
EXTT16=
EXTT17=
PLAYORDER=
